<svg width="171" height="28" viewBox="0 0 171 28" fill="none" xmlns="http://www.w3.org/2000/svg">
<path d="M40.2785 19.9684C40.2785 21.2622 40.3898 22.3037 40.6165 23.0968C40.8431 23.8899 41.1533 24.4346 41.5469 24.727C41.8809 24.9754 42.3581 25.1757 42.9784 25.3239C43.5987 25.4721 44.4258 25.5442 45.4597 25.5442C45.8812 25.5442 46.2987 25.5282 46.7043 25.5001C47.1138 25.4721 47.4996 25.436 47.8654 25.4C48.2312 25.3639 48.5573 25.3279 48.8515 25.2878C49.1418 25.2518 49.3844 25.2237 49.5712 25.2117C49.7621 25.1837 49.8496 25.2718 49.8337 25.4761C49.8058 25.7244 49.6985 26.0168 49.5156 26.3453C49.3327 26.6737 49.1259 26.9141 48.8913 27.0623C48.6447 27.1945 48.1875 27.3106 47.5234 27.4148C46.8594 27.5189 45.9368 27.571 44.7559 27.571C43.4715 27.571 42.4337 27.4508 41.6384 27.2065C40.8431 26.9662 40.2347 26.6537 39.8132 26.2692C39.5667 26.0649 39.3321 25.7965 39.1134 25.4641C38.8947 25.1316 38.7038 24.719 38.5448 24.2183C38.3857 23.7176 38.2545 23.1368 38.1511 22.4679C38.0477 21.799 38 21.0259 38 20.1447C38 18.3542 38.2068 16.9442 38.6243 15.9148C39.0378 14.8854 39.5389 14.1283 40.1234 13.6437C40.3421 13.4514 40.6045 13.2792 40.9107 13.1269C41.2169 12.9747 41.5787 12.8385 41.9923 12.7184C42.4058 12.6022 42.883 12.5101 43.4158 12.442C43.9487 12.3739 44.565 12.3419 45.2648 12.3419C46.1993 12.3419 46.9707 12.3699 47.5831 12.43C48.1954 12.4901 48.6328 12.5982 48.8953 12.7624C49.0424 12.8345 49.1696 12.9387 49.277 13.0709C49.3883 13.2031 49.4798 13.3392 49.5633 13.4794C49.6428 13.6196 49.7064 13.7638 49.7502 13.908C49.7939 14.0562 49.8178 14.1804 49.8178 14.2846C49.8178 14.3727 49.7939 14.4488 49.7502 14.5169C49.7064 14.585 49.6269 14.609 49.5116 14.593C49.0583 14.5329 48.5135 14.4728 47.8733 14.4047C47.2331 14.3366 46.4458 14.3046 45.5114 14.3046C44.4338 14.3046 43.5987 14.3847 43.0063 14.5449C42.4138 14.7051 41.9605 14.9254 41.6384 15.2058C41.2447 15.5423 40.9187 16.0991 40.6642 16.8681C40.4097 17.6372 40.2824 18.6706 40.2824 19.9644L40.2785 19.9684Z" fill="#105689"/>
<path d="M61.8423 26.9101C61.8423 27.1023 61.731 27.2105 61.5123 27.2425C60.9874 27.3146 60.3552 27.3867 59.6196 27.4508C58.8839 27.5189 58.0688 27.551 57.182 27.551C56.51 27.551 55.9374 27.5309 55.4643 27.4949C54.9911 27.4588 54.5855 27.4028 54.2515 27.3307C53.9174 27.2586 53.6391 27.1704 53.4204 27.0663C53.2017 26.9621 53.0188 26.846 52.8717 26.7138C52.6251 26.4775 52.4263 26.149 52.2832 25.7244C52.136 25.2998 52.0645 24.7551 52.0645 24.0942C52.0645 23.4333 52.132 22.8845 52.2712 22.4078C52.4104 21.9312 52.6013 21.5947 52.8518 21.4064C52.9989 21.3183 53.2733 21.2342 53.6828 21.1541C54.0924 21.074 54.5855 21.0019 55.17 20.9338C55.7545 20.8657 56.4027 20.8096 57.1184 20.7575C57.8342 20.7055 58.5777 20.6654 59.3492 20.6374C59.6116 20.6213 59.7428 20.4771 59.7428 20.1968C59.7428 19.5799 59.7031 19.1193 59.6235 18.8108C59.544 18.5024 59.4168 18.2661 59.2418 18.1059C59.039 17.9136 58.7368 17.7894 58.3352 17.7333C57.9336 17.6733 57.3331 17.6452 56.5299 17.6452C56.2237 17.6452 55.9056 17.6532 55.5796 17.6693C55.2535 17.6853 54.9314 17.7053 54.6173 17.7373C54.3031 17.7654 54.0089 17.8014 53.7306 17.8375C53.4522 17.8735 53.2057 17.9136 52.987 17.9577C52.9154 17.9737 52.8398 17.9577 52.7683 17.9136C52.6967 17.8695 52.6609 17.7974 52.6609 17.6933C52.6609 17.5891 52.6848 17.465 52.7365 17.3168C52.7882 17.1686 52.8518 17.0284 52.9353 16.8882C53.0148 16.748 53.1063 16.6198 53.2096 16.5036C53.313 16.3875 53.4124 16.2913 53.5158 16.2152C53.7783 16.055 54.2276 15.9308 54.8598 15.8507C55.4961 15.7706 56.2635 15.7306 57.1661 15.7306C58.2755 15.7306 59.1185 15.8027 59.7031 15.9509C60.2876 16.0991 60.7091 16.3114 60.9715 16.5878C61.1027 16.736 61.222 16.9042 61.3334 17.0925C61.4407 17.2847 61.5362 17.5371 61.6157 17.8535C61.6952 18.1699 61.7549 18.5705 61.7907 19.0552C61.8264 19.5398 61.8463 20.1407 61.8463 20.8617V26.9181L61.8423 26.9101ZM59.7229 22.7243C59.7229 22.52 59.6832 22.3958 59.6036 22.3598C59.5241 22.3237 59.4168 22.3037 59.2855 22.3037C58.876 22.3037 58.4187 22.3157 57.9057 22.3357C57.3968 22.3558 56.9077 22.3878 56.4424 22.4239C55.9772 22.4599 55.5676 22.508 55.2177 22.5681C54.8678 22.6281 54.6411 22.6922 54.5378 22.7683C54.4224 22.8565 54.335 22.9966 54.2753 23.1849C54.2157 23.3772 54.1878 23.6536 54.1878 24.0221C54.1878 24.711 54.3389 25.1677 54.6451 25.388C54.8042 25.5362 55.0666 25.6443 55.4324 25.7204C55.7983 25.7925 56.3351 25.8286 57.0508 25.8286C57.7069 25.8286 58.2517 25.8045 58.6891 25.7525C59.1265 25.7004 59.3889 25.6323 59.4764 25.5442C59.548 25.4721 59.6076 25.3679 59.6514 25.2358C59.6951 25.1036 59.719 24.8592 59.719 24.5067V22.7203L59.7229 22.7243Z" fill="#105689"/>
<path d="M70.1091 15.7386C70.9402 15.7386 71.6122 15.7706 72.1212 15.8387C72.6302 15.9068 72.9681 15.9829 73.1272 16.071C73.33 16.2032 73.505 16.4195 73.6521 16.7199C73.7992 17.0203 73.8708 17.2807 73.8708 17.501C73.8708 17.6051 73.839 17.6813 73.7714 17.7333C73.7077 17.7854 73.6362 17.8014 73.5646 17.7894C73.1431 17.7453 72.654 17.6973 72.0973 17.6452C71.5446 17.5931 70.9402 17.5691 70.2841 17.5691C68.9997 17.5691 68.1766 17.6933 67.8148 17.9456C67.6676 18.0618 67.5484 18.234 67.4529 18.4623C67.3575 18.6907 67.3098 18.959 67.3098 19.2675C67.3098 19.68 67.3813 19.9524 67.5285 20.0846C67.5881 20.1567 67.7631 20.2328 68.0533 20.3049C68.3436 20.377 68.6896 20.4571 69.0793 20.5452C69.4729 20.6333 69.9024 20.7215 70.3716 20.8096C70.8368 20.8977 71.2822 20.9898 71.7037 21.086C72.1252 21.1821 72.5029 21.2782 72.829 21.3704C73.159 21.4665 73.3857 21.5666 73.5169 21.6668C73.6759 21.799 73.8111 22.0273 73.9225 22.3517C74.0338 22.6762 74.0855 23.1088 74.0855 23.6535C74.0855 24.4627 73.9821 25.1116 73.7793 25.6042C73.5765 26.0969 73.326 26.4654 73.0357 26.7178C72.7455 26.9661 72.3001 27.1704 71.7037 27.3226C71.1072 27.4748 70.2443 27.555 69.123 27.555C68.1766 27.555 67.4609 27.5189 66.9797 27.4468C66.4986 27.3747 66.1566 27.2706 65.9538 27.1384C65.8663 27.0783 65.7749 26.9862 65.6795 26.854C65.584 26.7218 65.5005 26.5856 65.4289 26.4454C65.3574 26.3052 65.2977 26.169 65.254 26.0368C65.2102 25.9047 65.1864 25.7965 65.1864 25.7044C65.1864 25.5882 65.2182 25.5041 65.2858 25.452C65.3534 25.4 65.421 25.3839 65.4926 25.396C65.9578 25.4681 66.4906 25.5402 67.0911 25.6042C67.6875 25.6723 68.3595 25.7044 69.1031 25.7044C69.6996 25.7044 70.1966 25.6723 70.5903 25.6042C70.9839 25.5362 71.2623 25.448 71.4213 25.3279C71.5804 25.2117 71.7076 25.0475 71.8031 24.8432C71.8985 24.6389 71.9462 24.3785 71.9462 24.0741C71.9462 23.6335 71.8508 23.3531 71.6639 23.237C71.5605 23.1488 71.3577 23.0607 71.0515 22.9726C70.7454 22.8845 70.3915 22.7923 69.9898 22.6962C69.5882 22.6001 69.1588 22.5039 68.6975 22.4118C68.2402 22.3157 67.8028 22.2196 67.3972 22.1234C66.9877 22.0273 66.6298 21.9311 66.3157 21.839C66.0015 21.7429 65.7868 21.6427 65.6715 21.5426C65.5124 21.4264 65.3892 21.1941 65.2977 20.8496C65.2102 20.5052 65.1665 20.1647 65.1665 19.8242C65.1665 18.971 65.2699 18.2941 65.4727 17.7854C65.6755 17.2807 65.9459 16.8841 66.2799 16.6078C66.5702 16.3434 67.0314 16.1351 67.6597 15.9789C68.288 15.8267 69.1031 15.7466 70.1091 15.7466V15.7386Z" fill="#105689"/>
<path d="M86.4678 26.9101C86.4678 27.1023 86.3565 27.2105 86.1378 27.2425C85.6129 27.3146 84.9807 27.3867 84.245 27.4508C83.5094 27.5189 82.6943 27.551 81.8075 27.551C81.1355 27.551 80.5629 27.5309 80.0897 27.4949C79.6166 27.4588 79.211 27.4028 78.8769 27.3307C78.5429 27.2586 78.2646 27.1704 78.0459 27.0663C77.8272 26.9621 77.6443 26.846 77.4971 26.7138C77.2506 26.4775 77.0518 26.149 76.9086 25.7244C76.7615 25.2998 76.6899 24.7551 76.6899 24.0942C76.6899 23.4333 76.7575 22.8845 76.8967 22.4078C77.0359 21.9312 77.2268 21.5947 77.4773 21.4064C77.6244 21.3183 77.8988 21.2342 78.3083 21.1541C78.7179 21.074 79.211 21.0019 79.7955 20.9338C80.38 20.8657 81.0282 20.8096 81.7439 20.7575C82.4597 20.7055 83.2032 20.6654 83.9747 20.6374C84.2371 20.6213 84.3683 20.4771 84.3683 20.1968C84.3683 19.5799 84.3286 19.1193 84.249 18.8108C84.1695 18.5024 84.0423 18.2661 83.8673 18.1059C83.6645 17.9136 83.3623 17.7894 82.9607 17.7333C82.5591 17.6733 81.9586 17.6452 81.1554 17.6452C80.8492 17.6452 80.5311 17.6532 80.2051 17.6693C79.879 17.6853 79.5569 17.7053 79.2428 17.7373C78.9286 17.7654 78.6344 17.8014 78.356 17.8375C78.0777 17.8735 77.8312 17.9136 77.6125 17.9577C77.5409 17.9737 77.4653 17.9577 77.3938 17.9136C77.3222 17.8695 77.2864 17.7974 77.2864 17.6933C77.2864 17.5891 77.3103 17.465 77.3619 17.3168C77.4136 17.1686 77.4773 17.0284 77.5608 16.8882C77.6403 16.748 77.7318 16.6198 77.8351 16.5036C77.9385 16.3875 78.0379 16.2913 78.1413 16.2152C78.4038 16.055 78.8531 15.9308 79.4853 15.8507C80.1215 15.7706 80.889 15.7306 81.7916 15.7306C82.901 15.7306 83.744 15.8027 84.3286 15.9509C84.9131 16.0991 85.3346 16.3114 85.597 16.5878C85.7282 16.736 85.8475 16.9042 85.9589 17.0925C86.0662 17.2847 86.1617 17.5371 86.2412 17.8535C86.3207 18.1699 86.3804 18.5705 86.4161 19.0552C86.4519 19.5398 86.4718 20.1407 86.4718 20.8617V26.9181L86.4678 26.9101ZM84.3484 22.7243C84.3484 22.52 84.3087 22.3958 84.2291 22.3598C84.1496 22.3237 84.0423 22.3037 83.911 22.3037C83.5015 22.3037 83.0442 22.3157 82.5312 22.3357C82.0223 22.3558 81.5332 22.3878 81.0679 22.4239C80.6027 22.4599 80.1931 22.508 79.8432 22.5681C79.4933 22.6281 79.2666 22.6922 79.1632 22.7683C79.0479 22.8565 78.9604 22.9966 78.9008 23.1849C78.8412 23.3772 78.8133 23.6536 78.8133 24.0221C78.8133 24.711 78.9644 25.1677 79.2706 25.388C79.4297 25.5362 79.6921 25.6443 80.0579 25.7204C80.4238 25.7925 80.9606 25.8286 81.6763 25.8286C82.3324 25.8286 82.8772 25.8045 83.3146 25.7525C83.752 25.7004 84.0144 25.6323 84.1019 25.5442C84.1735 25.4721 84.2331 25.3679 84.2769 25.2358C84.3206 25.1036 84.3445 24.8592 84.3445 24.5067V22.7203L84.3484 22.7243Z" fill="#105689"/>
<path d="M108.712 27.3947C108.258 27.3947 107.936 27.3146 107.738 27.1504C107.539 26.9902 107.419 26.6497 107.376 26.137L106.131 15.0336C106.103 14.7412 106.028 14.5409 105.912 14.4408C105.797 14.3366 105.59 14.2886 105.3 14.2886C105.01 14.2886 104.803 14.3526 104.688 14.4768C104.572 14.601 104.477 14.8173 104.405 15.1257L102.35 24.0701C102.234 24.5708 102.111 24.9674 101.988 25.2598C101.864 25.5522 101.721 25.7645 101.562 25.8967C101.359 26.0569 101.085 26.1811 100.743 26.2732C100.401 26.3613 99.9677 26.4054 99.4428 26.4054C98.9776 26.4054 98.5601 26.3613 98.1982 26.2732C97.8324 26.1851 97.5501 26.0609 97.3433 25.8967C97.1842 25.7485 97.0451 25.5242 96.9298 25.2237C96.8144 24.9233 96.7111 24.5588 96.6236 24.1342L94.7427 15.1217C94.6712 14.7852 94.5718 14.5609 94.4485 14.4488C94.3252 14.3366 94.1304 14.2846 93.868 14.2846C93.5459 14.2846 93.3351 14.3486 93.2357 14.4728C93.1323 14.597 93.0528 14.8654 92.9971 15.2779L91.7048 26.2251C91.6332 26.6938 91.498 27.0062 91.2992 27.1624C91.1004 27.3146 90.7783 27.3947 90.325 27.3947H89.7564C89.5655 27.3947 89.486 27.2626 89.5178 26.9982L90.9811 15.0336C91.0248 14.6811 91.0726 14.3887 91.1243 14.1524C91.176 13.916 91.2316 13.7238 91.2873 13.5676C91.3469 13.4153 91.4145 13.2872 91.4941 13.195C91.5736 13.0989 91.6571 13.0068 91.7446 12.9187C92.1223 12.5662 92.8659 12.3899 93.9753 12.3899C94.9535 12.3899 95.6295 12.5421 96.0112 12.8546C96.1862 13.0148 96.3333 13.2391 96.4486 13.5275C96.5639 13.8119 96.6832 14.2365 96.7985 14.7933L98.7032 23.7176C98.7748 24.0541 98.8623 24.2744 98.9657 24.3786C99.069 24.4827 99.2559 24.5308 99.5343 24.5308C99.8126 24.5308 99.9995 24.4827 100.103 24.3866C100.206 24.2904 100.294 24.0741 100.365 23.7377L102.401 14.7933C102.517 14.2805 102.644 13.876 102.783 13.5796C102.922 13.2872 103.093 13.0508 103.296 12.8746C103.471 12.7264 103.745 12.6102 104.115 12.5221C104.489 12.434 104.95 12.3899 105.503 12.3899C106.115 12.3899 106.58 12.438 106.902 12.5341C107.225 12.6303 107.455 12.7344 107.602 12.8546C107.761 12.9707 107.901 13.159 108.016 13.4153C108.131 13.6717 108.219 14.0562 108.278 14.573L109.634 27.0423C109.662 27.1584 109.646 27.2465 109.579 27.3066C109.511 27.3667 109.427 27.3947 109.328 27.3947H108.716H108.712Z" fill="#105689"/>
<path d="M124.371 23.1408C124.371 24.1382 124.208 24.9313 123.878 25.5201C123.548 26.109 123.198 26.5255 122.816 26.7739C122.657 26.89 122.454 26.9902 122.216 27.0703C121.973 27.1504 121.675 27.2265 121.321 27.2906C120.963 27.3587 120.534 27.4028 120.029 27.4348C119.524 27.4628 118.923 27.4789 118.223 27.4789C117.245 27.4789 116.362 27.4668 115.567 27.4468C114.772 27.4228 114.048 27.3987 113.392 27.3707C113.304 27.3707 113.197 27.3347 113.074 27.2586C112.951 27.1865 112.887 27.0222 112.887 26.7739V13.0268C112.887 12.8506 112.939 12.7384 113.042 12.6863C113.145 12.6343 113.237 12.6102 113.324 12.6102C114.008 12.5822 114.764 12.5541 115.587 12.5341C116.41 12.5141 117.281 12.5021 118.199 12.5021C118.943 12.5021 119.571 12.5181 120.08 12.5461C120.589 12.5742 121.019 12.6182 121.369 12.6783C121.718 12.7384 122.001 12.8105 122.212 12.8986C122.422 12.9867 122.609 13.0829 122.768 13.187C123.09 13.4234 123.357 13.7758 123.568 14.2445C123.778 14.7131 123.886 15.318 123.886 16.051C123.886 16.7119 123.814 17.2607 123.667 17.6933C123.52 18.1259 123.369 18.4824 123.206 18.7628C123.118 18.923 123.051 19.0472 122.999 19.1353C122.947 19.2234 122.923 19.3195 122.923 19.4197C122.923 19.5679 123.039 19.7802 123.273 20.0566C123.52 20.349 123.766 20.7415 124.005 21.2342C124.247 21.7269 124.367 22.3598 124.367 23.1408H124.371ZM121.659 16.5757C121.659 16.019 121.591 15.6144 121.452 15.362C121.313 15.1137 121.142 14.9214 120.939 14.7893C120.705 14.641 120.374 14.5369 119.945 14.4688C119.516 14.4007 118.867 14.3687 118.009 14.3687C117.587 14.3687 117.17 14.3767 116.764 14.3887C116.354 14.4047 115.985 14.4247 115.651 14.4568C115.416 14.4728 115.269 14.5209 115.201 14.601C115.134 14.6811 115.102 14.8333 115.102 15.0536V18.3342C115.102 18.5385 115.142 18.6706 115.221 18.7307C115.301 18.7908 115.436 18.8188 115.627 18.8188H119.106C119.528 18.8188 119.873 18.8028 120.144 18.7748C120.414 18.7467 120.621 18.6947 120.768 18.6226C120.959 18.5064 121.154 18.2861 121.357 17.9617C121.559 17.6372 121.663 17.1766 121.663 16.5757H121.659ZM122.072 23.0727C122.072 22.516 121.969 22.0473 121.766 21.6748C121.563 21.3023 121.337 21.0459 121.086 20.9137C120.927 20.8256 120.716 20.7655 120.462 20.7375C120.207 20.7095 119.774 20.6934 119.162 20.6934H115.643C115.44 20.6934 115.297 20.7375 115.217 20.8256C115.138 20.9137 115.098 21.066 115.098 21.2863V24.9433C115.098 25.1797 115.142 25.3279 115.229 25.396C115.317 25.4641 115.468 25.5041 115.686 25.5161C115.965 25.5322 116.323 25.5442 116.76 25.5602C117.197 25.5762 117.694 25.5842 118.247 25.5842C118.991 25.5842 119.615 25.5562 120.116 25.4961C120.617 25.436 120.995 25.3279 121.241 25.1677C121.488 24.9914 121.691 24.7391 121.842 24.4066C121.997 24.0741 122.072 23.6335 122.072 23.0727Z" fill="#105689"/>
<path d="M137.075 15.7386C137.906 15.7386 138.578 15.7706 139.087 15.8387C139.596 15.9068 139.934 15.9829 140.093 16.071C140.296 16.2032 140.471 16.4195 140.618 16.7199C140.765 17.0203 140.837 17.2807 140.837 17.501C140.837 17.6051 140.805 17.6813 140.738 17.7333C140.67 17.7854 140.602 17.8014 140.531 17.7894C140.109 17.7453 139.62 17.6973 139.063 17.6452C138.511 17.5931 137.902 17.5691 137.25 17.5691C135.966 17.5691 135.143 17.6933 134.781 17.9456C134.634 18.0618 134.514 18.234 134.419 18.4623C134.324 18.6907 134.276 18.959 134.276 19.2675C134.276 19.68 134.347 19.9524 134.495 20.0846C134.554 20.1567 134.729 20.2328 135.019 20.3049C135.31 20.377 135.652 20.4571 136.045 20.5452C136.439 20.6333 136.868 20.7215 137.338 20.8096C137.803 20.8977 138.248 20.9898 138.67 21.086C139.091 21.1821 139.469 21.2782 139.795 21.3704C140.125 21.4665 140.352 21.5666 140.483 21.6668C140.642 21.799 140.777 22.0273 140.889 22.3517C141 22.6762 141.052 23.1088 141.052 23.6535C141.052 24.4627 140.948 25.1116 140.745 25.6042C140.543 26.0969 140.292 26.4654 140.002 26.7178C139.712 26.9661 139.266 27.1704 138.666 27.3226C138.069 27.4748 137.206 27.555 136.085 27.555C135.139 27.555 134.423 27.5189 133.942 27.4468C133.461 27.3747 133.119 27.2706 132.916 27.1384C132.828 27.0783 132.737 26.9862 132.642 26.854C132.546 26.7218 132.463 26.5856 132.391 26.4454C132.32 26.3052 132.26 26.169 132.216 26.0368C132.172 25.9047 132.149 25.7965 132.149 25.7044C132.149 25.5882 132.18 25.5041 132.248 25.452C132.316 25.4 132.383 25.3839 132.455 25.396C132.92 25.4681 133.453 25.5402 134.049 25.6042C134.646 25.6723 135.318 25.7044 136.061 25.7044C136.658 25.7044 137.155 25.6723 137.548 25.6042C137.942 25.5362 138.22 25.448 138.38 25.3279C138.539 25.2117 138.666 25.0475 138.761 24.8432C138.857 24.6389 138.904 24.3785 138.904 24.0741C138.904 23.6335 138.809 23.3531 138.622 23.237C138.519 23.1488 138.316 23.0607 138.01 22.9726C137.704 22.8845 137.35 22.7923 136.948 22.6962C136.546 22.6001 136.117 22.5039 135.656 22.4118C135.198 22.3157 134.761 22.2196 134.355 22.1234C133.946 22.0273 133.588 21.9311 133.274 21.839C132.96 21.7429 132.745 21.6427 132.63 21.5426C132.471 21.4264 132.347 21.1941 132.26 20.8496C132.172 20.5052 132.129 20.1647 132.129 19.8242C132.129 18.971 132.232 18.2941 132.435 17.7854C132.638 17.2807 132.908 16.8841 133.246 16.6078C133.536 16.3434 133.998 16.1351 134.622 15.9789C135.25 15.8267 136.065 15.7466 137.071 15.7466L137.075 15.7386Z" fill="#105689"/>
<path d="M143.831 26.4014C143.831 26.153 143.855 25.9327 143.907 25.7405C143.958 25.5482 144.034 25.416 144.137 25.3439C144.253 25.2277 144.42 25.1556 144.638 25.1356C144.857 25.1156 145.048 25.1036 145.207 25.1036C145.748 25.1036 146.118 25.1837 146.32 25.3439C146.38 25.416 146.436 25.5442 146.495 25.7204C146.555 25.8967 146.583 26.101 146.583 26.3373C146.583 26.8059 146.467 27.1584 146.233 27.3948C146.129 27.4669 145.982 27.5229 145.784 27.559C145.585 27.595 145.37 27.6151 145.139 27.6151C144.861 27.6151 144.642 27.595 144.483 27.559C144.324 27.5229 144.193 27.4669 144.09 27.3948C143.986 27.2906 143.919 27.1544 143.883 26.9862C143.847 26.818 143.827 26.6217 143.827 26.4014H143.831Z" fill="#105689"/>
<path d="M150.197 16.3995C150.197 16.2072 150.301 16.091 150.503 16.047C151.088 15.9749 151.736 15.9028 152.448 15.8387C153.16 15.7746 153.84 15.7386 154.484 15.7386C155.08 15.7386 155.597 15.7546 156.027 15.7826C156.456 15.8107 156.774 15.8788 156.977 15.9829C157.196 16.0991 157.379 16.3114 157.526 16.6118C157.673 16.9122 157.744 17.2126 157.744 17.505C157.744 17.5931 157.717 17.6612 157.657 17.7133C157.597 17.7654 157.534 17.7814 157.458 17.7694C157.18 17.7413 156.83 17.7133 156.408 17.6933C155.987 17.6732 155.593 17.6612 155.227 17.6612C154.862 17.6612 154.468 17.6692 154.09 17.6813C153.712 17.6973 153.354 17.7173 153.02 17.7493C152.889 17.7774 152.778 17.8094 152.69 17.8375C152.603 17.8655 152.535 17.9096 152.484 17.9697C152.432 18.0297 152.4 18.1098 152.384 18.214C152.368 18.3181 152.364 18.4623 152.364 18.6546V27.0943C152.364 27.2986 152.261 27.4027 152.058 27.4027H150.484C150.293 27.4027 150.197 27.2986 150.197 27.0943V16.4075V16.3995Z" fill="#105689"/>
<path d="M155.859 26.4014C155.859 26.153 155.883 25.9327 155.935 25.7405C155.987 25.5482 156.062 25.416 156.166 25.3439C156.281 25.2277 156.448 25.1556 156.667 25.1356C156.885 25.1156 157.076 25.1036 157.235 25.1036C157.776 25.1036 158.146 25.1837 158.349 25.3439C158.408 25.416 158.464 25.5442 158.524 25.7204C158.583 25.8967 158.611 26.101 158.611 26.3373C158.611 26.8059 158.496 27.1584 158.261 27.3948C158.158 27.4669 158.011 27.5229 157.812 27.559C157.613 27.595 157.398 27.6151 157.168 27.6151C156.889 27.6151 156.671 27.595 156.512 27.559C156.353 27.5229 156.221 27.4669 156.118 27.3948C156.015 27.2906 155.947 27.1544 155.911 26.9862C155.875 26.818 155.855 26.6217 155.855 26.4014H155.859Z" fill="#105689"/>
<path d="M164.389 27.1064C164.389 27.2986 164.293 27.3907 164.106 27.3907H163.295C162.902 27.3907 162.623 27.3267 162.464 27.2025C162.305 27.0783 162.222 26.818 162.222 26.4214V11.3084C162.222 11.1041 162.317 11 162.508 11H164.19C164.321 11 164.389 11.1122 164.389 11.3325V27.1064Z" fill="#105689"/>
<path d="M168.019 26.4014C168.019 26.153 168.043 25.9327 168.095 25.7405C168.147 25.5482 168.222 25.416 168.326 25.3439C168.441 25.2277 168.608 25.1556 168.827 25.1356C169.045 25.1156 169.236 25.1036 169.395 25.1036C169.936 25.1036 170.306 25.1837 170.509 25.3439C170.568 25.416 170.624 25.5442 170.684 25.7204C170.743 25.8967 170.771 26.101 170.771 26.3373C170.771 26.8059 170.656 27.1584 170.421 27.3948C170.318 27.4669 170.171 27.5229 169.972 27.559C169.773 27.595 169.558 27.6151 169.328 27.6151C169.049 27.6151 168.831 27.595 168.671 27.559C168.512 27.5229 168.381 27.4669 168.278 27.3948C168.174 27.2906 168.107 27.1544 168.071 26.9862C168.035 26.818 168.015 26.6217 168.015 26.4014H168.019Z" fill="#105689"/>
<path fill-rule="evenodd" clip-rule="evenodd" d="M27.9175 14.5625C28.0182 14.2044 27.9533 13.6982 27.9533 13.2848C27.9533 12.2945 28.1233 10.9085 27.8146 10.1436C27.3179 8.91675 26.0201 8.22485 24.9865 7.52189C24.5591 7.23009 24.181 6.81893 23.7648 6.5205C22.2792 5.46164 20.8495 4.36962 19.3638 3.31076C18.6299 2.78906 17.9319 2.17674 17.198 1.65504C16.8288 1.39198 16.435 1.17977 16.0793 0.896818C15.8152 0.686814 15.5579 0.432599 15.2402 0.275649C14.833 0.0722767 13.9783 -0.100147 13.3541 0.0678556C12.0765 0.412704 10.9265 1.63957 9.93082 2.34474C7.63969 3.97172 5.36199 5.63185 3.18945 7.38262C2.10877 8.25358 0.594036 8.82391 0.115226 10.2807C-0.0481059 10.7781 0.0100672 11.5053 0.0100672 12.1442V26.9815H3.53849V13.696C3.53849 13.0638 3.50269 12.4117 3.67721 11.9364C4.05533 10.9129 5.04651 10.2718 5.8766 9.69266C6.12048 9.52245 6.79171 9.1577 6.89015 8.89907H6.99531V26.9815H9.36922C9.72497 26.9815 10.2306 27.0412 10.5215 26.9461C10.4566 26.378 10.4857 25.6728 10.4857 25.0473V7.86894C10.4857 7.55504 10.4007 6.54481 10.5215 6.35029C10.5774 6.07175 11.1703 5.78438 11.3941 5.62522C11.7991 5.33785 12.204 5.02837 12.6157 4.72773C12.665 4.69236 12.6761 4.58846 12.7209 4.55531C12.7791 4.54425 12.8372 4.5332 12.8954 4.51994C13.0274 4.43151 13.1505 4.26793 13.2802 4.17509C13.4861 4.02698 13.7523 3.92087 13.909 3.72634H13.9448V26.9837H22.7468C24.2481 26.9837 25.8881 27.1141 26.763 26.4996C28.1591 25.5203 27.951 24.1188 27.951 21.8419V18.8754C27.7474 17.9823 27.4141 17.6529 26.9733 17.0472C26.8614 16.8925 26.8167 16.7399 26.6601 16.6338C26.7473 16.3973 26.9755 16.2359 27.1143 16.048C27.4342 15.6081 27.7519 15.1528 27.9175 14.5647V14.5625ZM17.509 6.31492C17.8021 6.40334 17.9565 6.66861 18.1735 6.83219C18.5986 7.15714 19.0371 7.49536 19.4667 7.79821C20.4646 8.50559 21.4133 9.27044 22.4 9.97119C23.2413 10.568 24.0244 11.0367 24.3555 12.1442C24.5591 12.8272 24.3555 13.7336 24.0758 14.1801C23.9416 14.3967 23.6977 14.5692 23.6216 14.8366H17.509V6.31492ZM24.3891 21.9812C24.313 22.2708 24.1922 22.6355 24.04 22.8787C23.917 23.0732 23.7044 23.197 23.6552 23.4645C22.9795 23.5419 22.1539 23.4999 21.42 23.4999H17.509V18.3581H23.6216C23.6888 18.4045 23.8745 18.7847 23.9349 18.8754C24.0893 19.103 24.2593 19.3772 24.3533 19.6689C24.4897 20.089 24.5099 21.5103 24.3891 21.9812Z" fill="#105689"/>
</svg>
